<svg xmlns="http://www.w3.org/2000/svg" xmlns:xlink="http://www.w3.org/1999/xlink" viewBox="0 0 500 500"><defs><clipPath id="freepik--clip-path--inject-108"><rect x="289.22" y="255.67" width="147.56" height="106.57" style="fill:#fff;stroke:#263238;stroke-linecap:round;stroke-linejoin:round"></rect></clipPath><clipPath id="freepik--clip-path-2--inject-108"><rect x="83.37" y="86.8" width="209.06" height="150.99" style="fill:#fff;stroke:#263238;stroke-linecap:round;stroke-linejoin:round"></rect></clipPath></defs><g id="freepik--Graphics--inject-108"><polygon points="328.6 252.65 324.47 246.06 288.11 246.06 288.11 252.65 288.11 255.02 288.11 364.63 437.76 364.63 437.76 252.65 328.6 252.65" style="fill:#263238"></polygon><rect x="289.22" y="255.67" width="147.56" height="106.57" style="fill:#fff"></rect><g style="clip-path:url(#freepik--clip-path--inject-108)"><rect x="434.07" y="254.76" width="3.43" height="108.29" style="opacity:0.17"></rect><rect x="434.07" y="320.23" width="3.43" height="41.94" style="opacity:0.17"></rect><rect x="288.63" y="254.23" width="148.34" height="5.8" style="fill:#045B8F;stroke:#263238;stroke-miterlimit:10"></rect></g><rect x="289.22" y="255.67" width="147.56" height="106.57" style="fill:none;stroke:#263238;stroke-linecap:round;stroke-linejoin:round"></rect><g style="opacity:0.17"><path d="M366.1,265.61H355.78a.9.9,0,0,1-.91-.91h0a.91.91,0,0,1,.91-.91H366.1a.91.91,0,0,1,.91.91h0A.91.91,0,0,1,366.1,265.61Z"></path><path d="M386.75,265.61H376.42a.91.91,0,0,1-.91-.91h0a.91.91,0,0,1,.91-.91h10.33a.91.91,0,0,1,.91.91h0A.91.91,0,0,1,386.75,265.61Z"></path><path d="M407.39,265.61H397.07a.91.91,0,0,1-.91-.91h0a.91.91,0,0,1,.91-.91h10.32a.91.91,0,0,1,.91.91h0A.9.9,0,0,1,407.39,265.61Z"></path><path d="M428,265.61H417.72a.91.91,0,0,1-.92-.91h0a.92.92,0,0,1,.92-.91H428a.91.91,0,0,1,.91.91h0A.91.91,0,0,1,428,265.61Z"></path></g><rect x="404.97" y="319.95" width="9.71" height="30.63" style="fill:#045B8F;stroke:#263238;stroke-miterlimit:10"></rect><rect x="394.18" y="339.77" width="9.71" height="10.81" style="fill:#263238;stroke:#263238;stroke-linecap:round;stroke-linejoin:round"></rect><rect x="383.39" y="279.4" width="9.71" height="71.17" style="fill:#045B8F;stroke:#263238;stroke-miterlimit:10"></rect><rect x="372.61" y="283.01" width="9.71" height="67.57" style="fill:#fff;stroke:#263238;stroke-linecap:round;stroke-linejoin:round"></rect><rect x="361.82" y="319.95" width="9.71" height="30.63" style="fill:#045B8F;stroke:#263238;stroke-miterlimit:10"></rect><rect x="351.03" y="310.04" width="9.71" height="40.54" style="fill:#263238;stroke:#263238;stroke-linecap:round;stroke-linejoin:round"></rect><rect x="340.25" y="345.17" width="9.71" height="5.41" style="fill:#045B8F;stroke:#263238;stroke-miterlimit:10"></rect><rect x="329.46" y="339.77" width="9.71" height="10.81" style="fill:#fff;stroke:#263238;stroke-linecap:round;stroke-linejoin:round"></rect><rect x="318.67" y="319.95" width="9.71" height="30.63" style="fill:#045B8F;stroke:#263238;stroke-miterlimit:10"></rect><path d="M330.94,292.45l3.47,19.71a20,20,0,0,1-23.49-19.71Z" style="fill:none;stroke:#263238;stroke-linecap:round;stroke-linejoin:round;stroke-width:0.75px"></path><path d="M330.94,292.45l15.77,12.32a19.09,19.09,0,0,1-12.3,7.39Z" style="fill:none;stroke:#263238;stroke-miterlimit:10;stroke-width:0.75px"></path><path d="M330.94,292.45l-10-17.33a20,20,0,0,1,27.34,7.32,19.7,19.7,0,0,1-1.56,22.33Z" style="fill:none;stroke:#263238;stroke-linecap:round;stroke-linejoin:round;stroke-width:0.75px"></path><circle cx="330.94" cy="292.45" r="9.76" transform="translate(-109.86 319.66) rotate(-45)" style="fill:#fff;stroke:#263238;stroke-linecap:round;stroke-linejoin:round;stroke-width:0.75px"></circle><line x1="359.28" y1="371.42" x2="383.07" y2="371.42" style="fill:none;stroke:#263238;stroke-miterlimit:10"></line><line x1="359.28" y1="375.47" x2="383.07" y2="375.47" style="fill:none;stroke:#263238;stroke-miterlimit:10"></line><line x1="359.28" y1="379.52" x2="383.07" y2="379.52" style="fill:none;stroke:#263238;stroke-miterlimit:10"></line><line x1="359.28" y1="383.56" x2="383.07" y2="383.56" style="fill:none;stroke:#263238;stroke-miterlimit:10"></line><polyline points="410.31 346.81 410.31 379.63 387.06 379.63" style="fill:none;stroke:#263238;stroke-miterlimit:10"></polyline><polygon points="139.16 82.52 133.31 73.19 81.8 73.19 81.8 82.52 81.8 85.88 81.8 241.17 293.83 241.17 293.83 82.52 139.16 82.52" style="fill:#263238"></polygon><rect x="83.37" y="86.8" width="209.06" height="150.99" style="fill:#fff"></rect><g style="clip-path:url(#freepik--clip-path-2--inject-108)"><rect x="288.61" y="85.5" width="4.85" height="153.43" style="opacity:0.17"></rect><rect x="288.61" y="178.27" width="4.85" height="59.42" style="opacity:0.17"></rect><rect x="82.54" y="84.76" width="210.17" height="8.21" style="fill:#045B8F;stroke:#263238;stroke-miterlimit:10"></rect></g><rect x="83.37" y="86.8" width="209.06" height="150.99" style="fill:none;stroke:#263238;stroke-linecap:round;stroke-linejoin:round"></rect><g style="opacity:0.17"><path d="M192.3,100.89H177.67a1.29,1.29,0,0,1-1.29-1.29h0a1.29,1.29,0,0,1,1.29-1.29H192.3a1.29,1.29,0,0,1,1.29,1.29h0A1.29,1.29,0,0,1,192.3,100.89Z"></path><path d="M221.55,100.89H206.93a1.29,1.29,0,0,1-1.29-1.29h0a1.29,1.29,0,0,1,1.29-1.29h14.62a1.29,1.29,0,0,1,1.29,1.29h0A1.29,1.29,0,0,1,221.55,100.89Z"></path><path d="M250.8,100.89H236.18a1.29,1.29,0,0,1-1.29-1.29h0a1.29,1.29,0,0,1,1.29-1.29H250.8a1.29,1.29,0,0,1,1.29,1.29h0A1.29,1.29,0,0,1,250.8,100.89Z"></path><path d="M280.06,100.89H265.43a1.29,1.29,0,0,1-1.29-1.29h0a1.29,1.29,0,0,1,1.29-1.29h14.63a1.29,1.29,0,0,1,1.29,1.29h0A1.29,1.29,0,0,1,280.06,100.89Z"></path></g><line x1="94.78" y1="173.57" x2="283.1" y2="173.57" style="fill:none;stroke:#263238;stroke-miterlimit:10;stroke-width:0.5px"></line><line x1="94.78" y1="173.57" x2="94.78" y2="172.11" style="fill:none;stroke:#263238;stroke-miterlimit:10;stroke-width:0.5px"></line><line x1="118.32" y1="173.57" x2="118.32" y2="172.11" style="fill:none;stroke:#263238;stroke-miterlimit:10;stroke-width:0.5px"></line><line x1="141.86" y1="173.57" x2="141.86" y2="172.11" style="fill:none;stroke:#263238;stroke-miterlimit:10;stroke-width:0.5px"></line><line x1="165.4" y1="173.57" x2="165.4" y2="172.11" style="fill:none;stroke:#263238;stroke-miterlimit:10;stroke-width:0.5px"></line><line x1="188.94" y1="173.57" x2="188.94" y2="172.11" style="fill:none;stroke:#263238;stroke-miterlimit:10;stroke-width:0.5px"></line><line x1="212.48" y1="173.57" x2="212.48" y2="172.11" style="fill:none;stroke:#263238;stroke-miterlimit:10;stroke-width:0.5px"></line><line x1="236.02" y1="173.57" x2="236.02" y2="172.11" style="fill:none;stroke:#263238;stroke-miterlimit:10;stroke-width:0.5px"></line><line x1="259.56" y1="173.57" x2="259.56" y2="172.11" style="fill:none;stroke:#263238;stroke-miterlimit:10;stroke-width:0.5px"></line><line x1="283.1" y1="173.57" x2="283.1" y2="172.11" style="fill:none;stroke:#263238;stroke-miterlimit:10;stroke-width:0.5px"></line><line x1="130.09" y1="158.39" x2="106.55" y2="165.67" style="fill:none;stroke:#263238;stroke-linecap:round;stroke-miterlimit:10;stroke-width:2px"></line><line x1="153.63" y1="142.38" x2="130.09" y2="158.39" style="fill:none;stroke:#263238;stroke-linecap:round;stroke-miterlimit:10;stroke-width:2px"></line><line x1="177.17" y1="120.54" x2="153.63" y2="142.38" style="fill:none;stroke:#263238;stroke-linecap:round;stroke-miterlimit:10;stroke-width:2px"></line><line x1="200.71" y1="118.36" x2="177.17" y2="120.54" style="fill:none;stroke:#263238;stroke-linecap:round;stroke-miterlimit:10;stroke-width:2px"></line><line x1="224.25" y1="134.37" x2="200.71" y2="118.36" style="fill:none;stroke:#263238;stroke-linecap:round;stroke-miterlimit:10;stroke-width:2px"></line><line x1="247.79" y1="149.66" x2="224.25" y2="134.37" style="fill:none;stroke:#263238;stroke-linecap:round;stroke-miterlimit:10;stroke-width:2px"></line><line x1="271.33" y1="117.63" x2="247.79" y2="149.66" style="fill:none;stroke:#263238;stroke-linecap:round;stroke-miterlimit:10;stroke-width:2px"></line><path d="M106.55,162.67h0a3,3,0,0,1,3,3h0a3,3,0,0,1-3,3h0a3,3,0,0,1-3-3h0A3,3,0,0,1,106.55,162.67Z" style="fill:#045B8F;stroke:#263238;stroke-miterlimit:10"></path><path d="M130.09,155.39h0a3,3,0,0,1,3,3h0a3,3,0,0,1-3,3h0a3,3,0,0,1-3-3h0A3,3,0,0,1,130.09,155.39Z" style="fill:#045B8F;stroke:#263238;stroke-miterlimit:10"></path><path d="M153.63,139.38h0a3,3,0,0,1,3,3h0a3,3,0,0,1-3,3h0a3,3,0,0,1-3-3h0A3,3,0,0,1,153.63,139.38Z" style="fill:#045B8F;stroke:#263238;stroke-miterlimit:10"></path><path d="M177.17,117.54h0a3,3,0,0,1,3,3h0a3,3,0,0,1-3,3h0a3,3,0,0,1-3-3h0A3,3,0,0,1,177.17,117.54Z" style="fill:#045B8F;stroke:#263238;stroke-miterlimit:10"></path><path d="M200.71,115.36h0a3,3,0,0,1,3,3h0a3,3,0,0,1-3,3h0a3,3,0,0,1-3-3h0A3,3,0,0,1,200.71,115.36Z" style="fill:#045B8F;stroke:#263238;stroke-miterlimit:10"></path><path d="M224.25,131.37h0a3,3,0,0,1,3,3h0a3,3,0,0,1-3,3h0a3,3,0,0,1-3-3h0A3,3,0,0,1,224.25,131.37Z" style="fill:#045B8F;stroke:#263238;stroke-miterlimit:10"></path><rect x="244.79" y="146.66" width="6" height="6" rx="3" style="fill:#045B8F;stroke:#263238;stroke-miterlimit:10"></rect><path d="M271.33,114.63h0a3,3,0,0,1,3,3h0a3,3,0,0,1-3,3h0a3,3,0,0,1-3-3h0A3,3,0,0,1,271.33,114.63Z" style="fill:#045B8F;stroke:#263238;stroke-miterlimit:10"></path><path d="M182.12,211.34,161,215.07a21.49,21.49,0,0,1,17.43-24.89,22.28,22.28,0,0,1,3.73-.32Z" style="fill:#263238;stroke:#263238;stroke-linecap:round;stroke-linejoin:round"></path><path d="M182.12,211.34,168.9,228.27a20.43,20.43,0,0,1-7.94-13.2Z" style="fill:#045B8F;stroke:#263238;stroke-miterlimit:10"></path><path d="M182.12,211.34l18.61-10.74A21.49,21.49,0,0,1,192.87,230a21.11,21.11,0,0,1-24-1.68Z" style="fill:#fff;stroke:#263238;stroke-linecap:round;stroke-linejoin:round"></path><path d="M182.12,211.34V189.86a20.88,20.88,0,0,1,18.61,10.74Z" style="fill:#045B8F;stroke:#263238;stroke-miterlimit:10"></path><circle cx="182.12" cy="211.34" r="10.48" transform="translate(-96.1 190.68) rotate(-45)" style="fill:#fff;stroke:#263238;stroke-linecap:round;stroke-linejoin:round"></circle><path d="M118.57,211.38l3.73,21.16a21.48,21.48,0,0,1-24.89-17.43,22.2,22.2,0,0,1-.33-3.73Z" style="fill:#263238;stroke:#263238;stroke-linecap:round;stroke-linejoin:round"></path><path d="M118.57,211.38l16.93,13.23a20.46,20.46,0,0,1-13.2,7.93Z" style="fill:#045B8F;stroke:#263238;stroke-miterlimit:10"></path><path d="M118.57,211.38l-10.75-18.61a21.5,21.5,0,0,1,29.36,7.87,21.15,21.15,0,0,1-1.68,24Z" style="fill:#fff;stroke:#263238;stroke-linecap:round;stroke-linejoin:round"></path><path d="M118.57,211.38H97.08a20.88,20.88,0,0,1,10.74-18.61Z" style="fill:#045B8F;stroke:#263238;stroke-miterlimit:10"></path><circle cx="118.57" cy="211.38" r="10.48" style="fill:#fff;stroke:#263238;stroke-linecap:round;stroke-linejoin:round"></circle><path d="M245.61,211.38l3.73,21.16a21.48,21.48,0,0,1-24.89-17.43,22.2,22.2,0,0,1-.33-3.73Z" style="fill:#263238;stroke:#263238;stroke-linecap:round;stroke-linejoin:round"></path><path d="M245.61,211.38l16.93,13.23a20.46,20.46,0,0,1-13.2,7.93Z" style="fill:#045B8F;stroke:#263238;stroke-miterlimit:10"></path><path d="M245.61,211.38l-10.75-18.61a21.5,21.5,0,0,1,29.36,7.87,21.15,21.15,0,0,1-1.68,24Z" style="fill:#fff;stroke:#263238;stroke-linecap:round;stroke-linejoin:round"></path><path d="M245.61,211.38H224.12a20.88,20.88,0,0,1,10.74-18.61Z" style="fill:#045B8F;stroke:#263238;stroke-miterlimit:10"></path><circle cx="245.61" cy="211.38" r="10.48" style="fill:#fff;stroke:#263238;stroke-linecap:round;stroke-linejoin:round"></circle><line x1="95.3" y1="109.86" x2="119.09" y2="109.86" style="fill:none;stroke:#263238;stroke-miterlimit:10"></line><line x1="95.3" y1="113.9" x2="119.09" y2="113.9" style="fill:none;stroke:#263238;stroke-miterlimit:10"></line><line x1="95.3" y1="117.95" x2="119.09" y2="117.95" style="fill:none;stroke:#263238;stroke-miterlimit:10"></line><line x1="95.3" y1="122" x2="119.09" y2="122" style="fill:none;stroke:#263238;stroke-miterlimit:10"></line><polyline points="280.38 119.1 303.63 119.1 330.99 143.03" style="fill:none;stroke:#263238;stroke-linecap:round;stroke-linejoin:round"></polyline><line x1="335.35" y1="136.19" x2="359.14" y2="136.19" style="fill:none;stroke:#263238;stroke-miterlimit:10"></line><line x1="335.35" y1="140.24" x2="359.14" y2="140.24" style="fill:none;stroke:#263238;stroke-miterlimit:10"></line><line x1="335.35" y1="144.29" x2="359.14" y2="144.29" style="fill:none;stroke:#263238;stroke-miterlimit:10"></line><line x1="335.35" y1="148.33" x2="359.14" y2="148.33" style="fill:none;stroke:#263238;stroke-miterlimit:10"></line><line x1="335.35" y1="205.25" x2="359.14" y2="205.25" style="fill:none;stroke:#263238;stroke-miterlimit:10"></line><line x1="335.35" y1="209.3" x2="359.14" y2="209.3" style="fill:none;stroke:#263238;stroke-miterlimit:10"></line><line x1="335.35" y1="213.35" x2="359.14" y2="213.35" style="fill:none;stroke:#263238;stroke-miterlimit:10"></line><line x1="335.35" y1="217.4" x2="359.14" y2="217.4" style="fill:none;stroke:#263238;stroke-miterlimit:10"></line><line x1="106.96" y1="285.26" x2="130.75" y2="285.26" style="fill:none;stroke:#263238;stroke-miterlimit:10"></line><line x1="106.96" y1="289.31" x2="130.75" y2="289.31" style="fill:none;stroke:#263238;stroke-miterlimit:10"></line><line x1="106.96" y1="293.36" x2="130.75" y2="293.36" style="fill:none;stroke:#263238;stroke-miterlimit:10"></line><line x1="106.96" y1="297.4" x2="130.75" y2="297.4" style="fill:none;stroke:#263238;stroke-miterlimit:10"></line><polyline points="256.45 199.1 266.02 188.16 304.32 188.16 331.67 210.73" style="fill:none;stroke:#263238;stroke-miterlimit:10"></polyline><line x1="118.32" y1="231.93" x2="118.32" y2="283.21" style="fill:none;stroke:#263238;stroke-miterlimit:10"></line></g></svg>