<svg xmlns="http://www.w3.org/2000/svg" viewBox="0 0 500 500"><g id="freepik--Character--inject-296"><path d="M343,466.27l-.94-167.68,5-2.1s34.42,2.8,53.82.7,30.35-10.51,32.54-16.81-4.09-31.85-8.16-35-103.24-20-103.24-20L305.78,230s-7.82-3.5-10-4.2-7.2,4.55-7.2,4.55l-5,.7H234.51l-5.61-.7s-5.6-5.25-8.05-4.55-11.2,4.2-11.2,4.2l-18.2-4.55s-103.27,21-107.83,24.16-19.25,24.5-16.8,30.8,14.7,14.71,36.41,16.81,60.21-.7,60.21-.7l5.6,2.1-1,167.68" style="fill:#045B8F"></path><path d="M168,466.77h0a.5.5,0,0,1-.5-.5l1-167.34L163.37,297c-2.3.16-39.26,2.72-60.19.69C81.64,295.6,69,287.35,66.36,280.56c-2.58-6.62,12.19-28.08,17-31.39,4.58-3.18,103.79-23.38,108-24.24a.55.55,0,0,1,.22,0l18,4.51c1.21-.48,8.81-3.5,11.1-4.16,2.52-.72,7.43,3.65,8.42,4.56l5.44.68h49l4.76-.67c.92-.94,5.3-5.29,7.59-4.55,2,.65,8.73,3.62,9.9,4.14l16.1-4.5a.54.54,0,0,1,.22,0c4.05.69,99.34,16.86,103.46,20,4.42,3.42,10.49,29.35,8.32,35.57-2.36,6.79-13.68,15.05-33,17.13-18.65,2-51.52-.51-53.79-.69l-4.59,1.93.94,167.35a.5.5,0,0,1-.5.5h0a.5.5,0,0,1-.5-.5l-.94-167.68a.49.49,0,0,1,.31-.46l5-2.1a.41.41,0,0,1,.24,0c.34,0,34.59,2.77,53.72.7,20.13-2.18,30.24-11,32.13-16.47,2.21-6.36-4.27-31.57-8-34.45-3.25-2.52-75.28-15.15-102.91-19.84l-16.16,4.52a.45.45,0,0,1-.34,0c-.08,0-7.82-3.5-10-4.18-1.38-.44-4.83,2.48-6.69,4.42a.51.51,0,0,1-.29.15l-5,.7H234.51l-5.67-.7a.52.52,0,0,1-.28-.13c-2.08-2-6-4.88-7.57-4.44-2.4.69-11.07,4.15-11.15,4.19a.55.55,0,0,1-.31,0l-18.09-4.53c-35.72,7.27-104,21.61-107.53,24.06C79.46,253.07,65,274.28,67.29,280.2c2.11,5.43,13.44,14.31,36,16.49,21.41,2.07,59.74-.67,60.12-.7a.42.42,0,0,1,.22,0l5.6,2.1a.5.5,0,0,1,.32.47l-1,167.68A.5.5,0,0,1,168,466.77Z" style="fill:#263238"></path><path d="M355.76,269.72a.5.5,0,0,1-.21-.05.52.52,0,0,1-.25-.67l2-4.23a.5.5,0,1,1,.9.42l-2,4.24A.49.49,0,0,1,355.76,269.72Z" style="fill:#263238"></path><path d="M342.08,299.09a.45.45,0,0,1-.16,0,.5.5,0,0,1-.33-.58l5.85-25.91a.5.5,0,1,1,1,.22l-4.83,21.36L353,274.06a.49.49,0,0,1,.66-.24.51.51,0,0,1,.25.66L342.53,298.8A.49.49,0,0,1,342.08,299.09Z" style="fill:#263238"></path><path d="M307,288.58h-.07a.49.49,0,0,1-.42-.57s.27-1.85.43-4.83a.49.49,0,0,1,.53-.48.5.5,0,0,1,.47.53c-.17,3-.43,4.85-.45,4.93A.49.49,0,0,1,307,288.58Z" style="fill:#263238"></path><path d="M307.54,278.32a.5.5,0,0,1-.5-.5,77.79,77.79,0,0,0-2.31-18.67c-3.78-14.78-9.32-23.22-9.38-23.3a.5.5,0,0,1,.14-.69.49.49,0,0,1,.69.14c.06.08,5.7,8.64,9.52,23.6A78.8,78.8,0,0,1,308,277.82a.5.5,0,0,1-.5.5Z" style="fill:#263238"></path><path d="M317.82,257.08a.49.49,0,0,1-.48-.39c-1-4.38-15.5-21-15.65-21.14a.49.49,0,0,1,.05-.7.5.5,0,0,1,.71,0c.6.69,14.79,17,15.86,21.58a.51.51,0,0,1-.38.6Z" style="fill:#263238"></path><path d="M216.3,265.83a.5.5,0,0,1-.45-.28c-4.54-9.08-6.61-30.76-6.7-31.68a.5.5,0,0,1,1-.09c0,.22,2.14,22.41,6.6,31.33a.51.51,0,0,1-.22.67A.64.64,0,0,1,216.3,265.83Z" style="fill:#263238"></path><path d="M191.8,267.23h-.06a.5.5,0,0,1-.44-.55c.66-6.19,5.1-17.58,8.7-26.05a.51.51,0,0,1,.65-.27.5.5,0,0,1,.27.66c-2.93,6.88-7.94,19.38-8.63,25.76A.49.49,0,0,1,191.8,267.23Z" style="fill:#263238"></path><path d="M201.86,238.07a.51.51,0,0,1-.2,0,.5.5,0,0,1-.25-.66c1.1-2.52,1.84-4.11,1.84-4.11a.5.5,0,0,1,.9.42s-.73,1.58-1.83,4.09A.49.49,0,0,1,201.86,238.07Z" style="fill:#263238"></path><path d="M213.85,290.68a.48.48,0,0,1-.47-.33c-.42-1.19-.9-2.84-1.43-4.92a.5.5,0,0,1,1-.25c.52,2.05,1,3.68,1.4,4.84a.5.5,0,0,1-.3.64A.5.5,0,0,1,213.85,290.68Z" style="fill:#263238"></path><path d="M211.13,280.32a.5.5,0,0,1-.49-.4c-1.85-8.21-3.57-17.56-3.58-17.65a.5.5,0,1,1,1-.18c0,.09,1.73,9.42,3.58,17.62a.5.5,0,0,1-.38.59Z" style="fill:#263238"></path><path d="M254.46,426.86a.5.5,0,0,1-.5-.5c0-1.19,0-119.45.35-125.35s5.39-42.93,5.6-44.5a.51.51,0,0,1,.57-.43.51.51,0,0,1,.43.57c-.06.38-5.26,38.55-5.6,44.42S255,425.17,255,426.36A.5.5,0,0,1,254.46,426.86Z" style="fill:#263238"></path><path d="M199.05,373.67c-6.41,0-18.55-3.78-20-7.7a.5.5,0,0,1,.94-.34c1.23,3.38,13.69,7.39,19.81,7,5.78-.34,23.72-8.55,24.39-13.57.64-4.85-1.78-44.37-2.08-49.14H180.24a.51.51,0,0,1-.5-.5.5.5,0,0,1,.5-.5H222.6a.49.49,0,0,1,.5.47c.12,1.81,2.8,44.57,2.1,49.8-.74,5.51-19.17,14.08-25.32,14.44C199.61,373.67,199.34,373.67,199.05,373.67Z" style="fill:#263238"></path><path d="M219.1,316.94H181.29a.5.5,0,0,1,0-1H219.1a.5.5,0,0,1,0,1Z" style="fill:#263238"></path><path d="M307.29,373.67c-.29,0-.56,0-.83,0-6.14-.36-24.58-8.93-25.32-14.44-.7-5.23,2-48,2.1-49.8a.5.5,0,0,1,.5-.47H326.1a.5.5,0,0,1,.5.5.5.5,0,0,1-.5.5H284.21c-.3,4.77-2.72,44.29-2.08,49.14.67,5,18.61,13.23,24.39,13.57,6.12.34,18.58-3.64,19.81-7a.5.5,0,0,1,.94.34C325.84,369.89,313.7,373.67,307.29,373.67Z" style="fill:#263238"></path><path d="M325.05,316.94H287.24a.5.5,0,0,1,0-1h37.81a.5.5,0,0,1,0,1Z" style="fill:#263238"></path><path d="M157.51,271.79a.51.51,0,0,1-.46-.31l-1.77-4.21a.5.5,0,1,1,.92-.38l1.78,4.2a.52.52,0,0,1-.27.66A.65.65,0,0,1,157.51,271.79Z" style="fill:#263238"></path><path d="M169,299.09a.51.51,0,0,1-.46-.31l-8.51-20.15a.51.51,0,0,1,.27-.65.5.5,0,0,1,.66.27l8.5,20.14a.5.5,0,0,1-.26.66A.71.71,0,0,1,169,299.09Z" style="fill:#263238"></path><path d="M163.44,297a.48.48,0,0,1-.3-.11l-17.86-13.65a.5.5,0,1,1,.61-.79l17.85,13.65a.5.5,0,0,1,.1.7A.51.51,0,0,1,163.44,297Z" style="fill:#263238"></path><path d="M173.24,287.88h-.1a.51.51,0,0,1-.39-.59c1.3-6,6.61-16.33,10.83-23.89a.5.5,0,1,1,.87.49c-4.19,7.5-9.45,17.68-10.72,23.61A.5.5,0,0,1,173.24,287.88Z" style="fill:#263238"></path><path d="M185.69,261.17a.54.54,0,0,1-.25-.06.52.52,0,0,1-.19-.69c1.56-2.71,2.62-4.45,2.62-4.45a.5.5,0,1,1,.85.52s-1.05,1.73-2.6,4.43A.5.5,0,0,1,185.69,261.17Z" style="fill:#263238"></path><path d="M398.69,290.68a.52.52,0,0,1-.27-.07c-4.92-3.16-11.07-11-11.33-11.32a.5.5,0,0,1,.09-.7.5.5,0,0,1,.7.08c.06.08,6.31,8,11.08,11.09a.51.51,0,0,1,.15.7A.52.52,0,0,1,398.69,290.68Z" style="fill:#263238"></path><path d="M265.61,279.11a2.69,2.69,0,1,1-2.69-2.69A2.68,2.68,0,0,1,265.61,279.11Z" style="fill:#fff"></path><path d="M262.92,282.3a3.19,3.19,0,1,1,3.19-3.19A3.19,3.19,0,0,1,262.92,282.3Zm0-5.38a2.19,2.19,0,1,0,2.19,2.19A2.2,2.2,0,0,0,262.92,276.92Z" style="fill:#263238"></path><path d="M263.07,309.25a2.69,2.69,0,1,1-2.69-2.69A2.69,2.69,0,0,1,263.07,309.25Z" style="fill:#fff"></path><path d="M260.38,312.44a3.19,3.19,0,1,1,3.19-3.19A3.21,3.21,0,0,1,260.38,312.44Zm0-5.38a2.19,2.19,0,1,0,2.19,2.19A2.2,2.2,0,0,0,260.38,307.06Z" style="fill:#263238"></path><path d="M262.74,339.38a2.69,2.69,0,1,1-2.69-2.69A2.69,2.69,0,0,1,262.74,339.38Z" style="fill:#fff"></path><path d="M260.05,342.57a3.19,3.19,0,1,1,3.19-3.19A3.19,3.19,0,0,1,260.05,342.57Zm0-5.38a2.19,2.19,0,1,0,2.19,2.19A2.2,2.2,0,0,0,260.05,337.19Z" style="fill:#263238"></path><path d="M262.36,369.51a2.69,2.69,0,1,1-2.69-2.69A2.69,2.69,0,0,1,262.36,369.51Z" style="fill:#fff"></path><path d="M259.67,372.7a3.19,3.19,0,1,1,3.19-3.19A3.19,3.19,0,0,1,259.67,372.7Zm0-5.38a2.19,2.19,0,1,0,2.19,2.19A2.19,2.19,0,0,0,259.67,367.32Z" style="fill:#263238"></path><path d="M261.64,399.64A2.69,2.69,0,1,1,259,397,2.68,2.68,0,0,1,261.64,399.64Z" style="fill:#fff"></path><path d="M259,402.83a3.19,3.19,0,1,1,3.19-3.19A3.19,3.19,0,0,1,259,402.83Zm0-5.38a2.19,2.19,0,1,0,2.19,2.19A2.19,2.19,0,0,0,259,397.45Z" style="fill:#263238"></path><path d="M254.81,450a.5.5,0,0,1-.5-.5v-14a.5.5,0,0,1,1,0v14A.5.5,0,0,1,254.81,450Z" style="fill:#263238"></path><path d="M109.88,292.79a.51.51,0,0,1-.46-.31.5.5,0,0,1,.26-.65,36.74,36.74,0,0,0,15.52-13.11.51.51,0,0,1,.69-.17.5.5,0,0,1,.17.69,37.77,37.77,0,0,1-16,13.5A.49.49,0,0,1,109.88,292.79Z" style="fill:#263238"></path><path d="M262.36,429.77a2.69,2.69,0,1,1-2.69-2.69A2.69,2.69,0,0,1,262.36,429.77Z" style="fill:#fff"></path><path d="M259.67,433a3.19,3.19,0,1,1,3.19-3.19A3.19,3.19,0,0,1,259.67,433Zm0-5.38a2.19,2.19,0,1,0,2.19,2.19A2.2,2.2,0,0,0,259.67,427.58Z" style="fill:#263238"></path><path d="M235.91,220.87s-6,1.4-6.66,2.8-7.7,25.91-8.05,28.36-1,7.35,1.05,7,21.36-15,21.36-15,4.55,1.05,5.6,3.85,11.2,8.75,11.2,8.75,9.45-5.25,10.15-7.35a51.21,51.21,0,0,1,3.85-7s20.31,18.2,22.06,16.1,1.75-9.45.7-12.6-9.8-25.21-10.85-26.61S235.91,220.87,235.91,220.87Z" style="fill:#fff"></path><path d="M222.05,259.55a1.4,1.4,0,0,1-1-.4c-1.12-1.09-.79-4.15-.35-7.19.34-2.42,7.31-26.93,8.1-28.51s5.95-2.82,7-3.07h.08c18.54-1.18,49.79-3,50.85-1.55,1.16,1.55,10,24,10.92,26.75,1.09,3.26,1.11,10.8-.79,13.08a1,1,0,0,1-.72.34h-.08c-3.38,0-18.3-13.13-21.53-16a44.21,44.21,0,0,0-3.48,6.39c-.74,2.23-9.4,7.09-10.39,7.64a.5.5,0,0,1-.49,0c-1.06-.62-10.34-6.13-11.42-9-.82-2.18-4.13-3.23-5-3.48-2.72,2.07-19.28,14.65-21.39,15A1.33,1.33,0,0,1,222.05,259.55ZM236,221.37c-2.38.56-5.87,1.71-6.28,2.53-.73,1.45-7.68,26-8,28.2-.24,1.65-.79,5.5.06,6.33a.44.44,0,0,0,.41.11c1.44-.25,13.73-9.31,21.13-15a.53.53,0,0,1,.42-.09c.2,0,4.82,1.14,6,4.16.78,2.1,7.79,6.6,10.74,8.35,3.6-2,9.21-5.57,9.67-6.93.71-2.14,3.77-6.91,3.9-7.12a.51.51,0,0,1,.36-.22.49.49,0,0,1,.4.12c9.17,8.23,19.95,16.72,21.36,16.14,1.51-1.83,1.65-8.89.58-12.11-1.15-3.46-9.6-24.61-10.73-26.4C283.76,218.66,255,220.15,236,221.37Zm50-1.86Z" style="fill:#263238"></path><polygon points="248.86 238.02 260.41 256.58 269.16 239.42 248.86 238.02" style="fill:#263238"></polygon><path d="M260.41,257.08a.49.49,0,0,1-.42-.24l-11.56-18.55a.49.49,0,0,1,0-.52.54.54,0,0,1,.46-.25l20.31,1.41a.5.5,0,0,1,.4.25.52.52,0,0,1,0,.47l-8.75,17.16a.52.52,0,0,1-.43.27ZM249.8,238.59l10.57,17,8-15.69Z" style="fill:#263238"></path><path d="M232,135.74s-10.89,5.91-14.62,14.93,5.29,59.71,7.15,62.82,20.62,25.48,27.3,28.33c7.85,3.34,16.84,1.66,20.17-3,.81-1.13,20.52-21.67,21.46-25.72s7.57-55,4.78-64-9-14.61-11.2-15.86-8.4-4-8.4-4,3.74-8.09,2.49-8.4-8.4,2.49-8.4,2.49c-4.35-.62,5.91-4.35,2.8-3.73s-14,5.29-14,5.29,8.71-8.4,5.29-8.09-15.55,3.73-17.11,5.91-11.82,9.95-11.82,9.95,1.87-7.15-2.79-4S232,135.74,232,135.74Z" style="fill:#d9d9d9"></path><path d="M260.51,244.08a22.82,22.82,0,0,1-8.86-1.8c-6.9-2.94-25.7-25.5-27.53-28.53-2-3.28-11-54-7.18-63.27,3.42-8.28,12.56-13.87,14.49-15-.27-1.19-.62-4.63,3.42-7.33,1.37-.91,2.38-1.1,3.11-.59,1,.7.92,2.53.72,3.84,2.65-2,9.45-7.35,10.66-9,1.74-2.44,14.42-5.84,17.46-6.12.8-.07,1.12.26,1.25.55.54,1.17-2,4.15-4.32,6.58,3.4-1.41,9.48-3.87,11.73-4.32.44-.09,1-.2,1.16.28s-.17.69-1.48,1.38a13.34,13.34,0,0,0-2.94,1.91,2,2,0,0,0,.5.14c1.85-.72,7.31-2.78,8.57-2.46a.8.8,0,0,1,.52.43c.57,1.19-1.38,5.82-2.46,8.2,1.49.68,6.13,2.8,8,3.86,2.54,1.45,8.68,7.31,11.42,16.15,2.86,9.21-4,60.75-4.77,64.28-.66,2.88-9.36,12.62-18.66,22.72-1.52,1.65-2.72,3-2.88,3.18C270.12,242.35,265.54,244.08,260.51,244.08ZM237.05,128.31a3.49,3.49,0,0,0-1.65.69c-4.25,2.84-3,6.41-2.92,6.56a.5.5,0,0,1-.23.62c-.1.06-10.77,5.93-14.39,14.68-3.52,8.5,5,58.83,7.12,62.37,1.93,3.21,20.61,25.38,27.07,28.13,7.28,3.1,16.24,1.82,19.56-2.79.19-.27,1.09-1.25,3-3.27,5.3-5.76,17.72-19.25,18.42-22.27,1.15-5,7.5-55,4.79-63.77-2.65-8.55-8.54-14.18-11-15.57-2.13-1.22-8.29-4-8.35-4a.51.51,0,0,1-.26-.28.48.48,0,0,1,0-.39c1.44-3.12,2.83-6.84,2.7-7.72-.93,0-4.7,1.21-8,2.49a.57.57,0,0,1-.26,0c-.37-.06-1.37-.2-1.51-1s.51-1.23,1.6-1.91c-4.32,1.51-10.93,4.34-11,4.38a.51.51,0,0,1-.62-.19.5.5,0,0,1,.07-.63c3.32-3.2,6-6.48,5.94-7.24h-.26c-3.63.33-15.36,3.77-16.74,5.7-1.58,2.21-11.5,9.74-11.92,10.06a.5.5,0,0,1-.58,0,.51.51,0,0,1-.21-.54c.36-1.39.59-3.65-.06-4.11A.58.58,0,0,0,237.05,128.31Z" style="fill:#263238"></path><path d="M262.34,184.31a.51.51,0,0,1-.5-.45c-.48-4.8,3.84-13.21,4-13.56a.5.5,0,0,1,.67-.22.51.51,0,0,1,.22.68c-.05.08-4.37,8.49-3.92,13a.5.5,0,0,1-.45.55Z" style="fill:#263238"></path><path d="M269.65,151.17h0a.7.7,0,0,1-.74-.47c-.13-.48.38-.78.57-.89a.5.5,0,0,1,.54,0,.53.53,0,0,1,.21.51l-.08.42A.5.5,0,0,1,269.65,151.17Zm0-.5Zm0-.45.1,0,.16.27a.24.24,0,0,0,0-.08.36.36,0,0,0-.24-.26Z" style="fill:#263238"></path><path d="M287.06,133.25c-2.18-1.24-8.4-4-8.4-4s3.74-8.09,2.49-8.4-8.4,2.49-8.4,2.49c-4.35-.62,5.91-4.35,2.8-3.73s-14,5.29-14,5.29,8.71-8.4,5.29-8.09-15.55,3.73-17.11,5.91-11.82,9.95-11.82,9.95,1.87-7.15-2.79-4-3.11,7.15-3.11,7.15-10.89,5.91-14.62,14.93c-1.7,4.1-.76,16.84.95,29.8,1.84-2.93,5.05-8.67,5.27-13.32.31-6.53,1.86-17.1,4.66-19.9s23.64,5,28.93,5,13.37-6.53,13.37-6.53l-.86,4.55a19.14,19.14,0,0,1,2.72-1.13,23.72,23.72,0,0,0,7.16-4s9.33-1.24,9.95,8.4.31,17.1,2.18,21.14c1,2.29,3.49,7.45,5.42,11.51,1.5-14.77,2.68-31.94,1.11-37C295.46,140.1,289.24,134.5,287.06,133.25Z" style="fill:#263238"></path><path d="M297.15,186.62a.5.5,0,0,1-.45-.28c-2.77-5.83-4.59-9.7-5.43-11.52-1.41-3-1.61-7.93-1.86-14.1-.1-2.29-.2-4.65-.36-7.22a8.3,8.3,0,0,0-2.75-6.17,9.59,9.59,0,0,0-6.5-1.78,24.32,24.32,0,0,1-7.19,4,17.58,17.58,0,0,0-2.63,1.1.5.5,0,0,1-.54,0,.51.51,0,0,1-.21-.5l.62-3.26c-2.39,1.77-8.33,5.83-12.64,5.83-2.11,0-6.37-1.13-11.29-2.44-6.66-1.77-15.77-4.19-17.28-2.68-2.75,2.75-4.23,13.46-4.52,19.57-.23,4.74-3.45,10.54-5.34,13.57a.53.53,0,0,1-.53.22.5.5,0,0,1-.39-.42c-1.48-11.17-2.83-25.45-.92-30.06,3.42-8.28,12.56-13.87,14.49-15-.27-1.19-.62-4.63,3.42-7.33,1.37-.91,2.38-1.1,3.11-.59,1,.7.92,2.53.72,3.84,2.65-2,9.45-7.35,10.66-9,1.74-2.44,14.42-5.84,17.46-6.12.8-.07,1.12.26,1.25.55.54,1.17-2,4.15-4.32,6.58,3.4-1.41,9.48-3.87,11.73-4.32.44-.09,1-.2,1.16.28s-.17.69-1.48,1.38a13.34,13.34,0,0,0-2.94,1.91,1.88,1.88,0,0,0,.5.14c1.85-.72,7.31-2.78,8.57-2.46a.8.8,0,0,1,.52.43c.57,1.19-1.38,5.82-2.46,8.2,1.49.68,6.13,2.8,8,3.86h0c2.54,1.45,8.68,7.31,11.42,16.15,1.77,5.68.08,25.75-1.08,37.2a.5.5,0,0,1-.41.45Zm-16.51-42.1a10,10,0,0,1,6.29,2,9.25,9.25,0,0,1,3.12,6.88c.16,2.57.26,4.94.36,7.23.24,6.07.44,10.86,1.77,13.74.75,1.63,2.32,5,4.65,9.87,1.14-11.56,2.57-29.78.95-35-2.65-8.55-8.54-14.18-11-15.57-2.13-1.22-8.29-4-8.35-4a.51.51,0,0,1-.26-.28.48.48,0,0,1,0-.39c1.44-3.12,2.83-6.84,2.7-7.72-.93,0-4.7,1.21-8,2.49a.57.57,0,0,1-.26,0c-.37-.06-1.37-.2-1.51-1s.51-1.23,1.6-1.91c-4.32,1.51-10.93,4.34-11,4.38a.51.51,0,0,1-.62-.19.5.5,0,0,1,.07-.63c3.32-3.2,6-6.48,5.94-7.24h-.26c-3.63.33-15.36,3.76-16.74,5.7-1.58,2.21-11.5,9.74-11.92,10.06a.5.5,0,0,1-.58,0,.51.51,0,0,1-.21-.54c.36-1.39.59-3.65-.06-4.11-.33-.24-1,0-2,.6-4.25,2.84-3,6.41-2.92,6.56a.5.5,0,0,1-.23.62c-.1.06-10.77,5.93-14.39,14.68-1.38,3.33-1.09,13.3.8,28.14,1.84-3.12,4.27-7.92,4.46-11.87.31-6.51,1.85-17.27,4.81-20.24,1.79-1.78,8.38-.2,18.24,2.43,4.66,1.23,9.06,2.4,11,2.4,5,0,13-6.35,13.05-6.42a.5.5,0,0,1,.81.49l-.67,3.57c.49-.2,1.11-.44,1.88-.72a23.33,23.33,0,0,0,7-3.94.47.47,0,0,1,.27-.12A8.3,8.3,0,0,1,280.64,144.52Z" style="fill:#263238"></path><path d="M246.77,183.51c0,1.54-.94,2.78-2.1,2.78s-2.11-1.24-2.11-2.78.95-2.77,2.11-2.77S246.77,182,246.77,183.51Z" style="fill:#263238"></path><path d="M274.52,183.51c0,1.54-.94,2.78-2.1,2.78s-2.1-1.24-2.1-2.78.94-2.77,2.1-2.77S274.52,182,274.52,183.51Z" style="fill:#263238"></path><path d="M252.22,207.17a.49.49,0,0,1-.39-.19c-.36-.46-2.15-2.79-2.15-4a9.24,9.24,0,0,1,.79-3,.5.5,0,0,1,.66-.26.51.51,0,0,1,.25.67,8.28,8.28,0,0,0-.7,2.57c0,.64,1.13,2.37,1.93,3.39a.49.49,0,0,1-.08.7A.51.51,0,0,1,252.22,207.17Z" style="fill:#263238"></path><path d="M259,208c-3.09,0-6.07-3.25-6.21-3.4a.5.5,0,0,1,.75-.67s3.36,3.65,6.17,3,4.86-3.64,4.88-3.67a.5.5,0,1,1,.83.54,10.14,10.14,0,0,1-5.48,4.1A3.77,3.77,0,0,1,259,208Z" style="fill:#263238"></path><path d="M265,207.91a.5.5,0,0,1-.48-.38.51.51,0,0,1,.36-.61c.05,0,1.23-.37,1.86-2.61a5.85,5.85,0,0,0-.67-4.4.5.5,0,0,1,.83-.55,6.74,6.74,0,0,1,.81,5.22c-.81,2.84-2.51,3.29-2.58,3.31Z" style="fill:#263238"></path><path d="M249.11,170.53a14.57,14.57,0,0,0-10.85-.5c-5.72,2.13-7.67,8.57-6.08,8.58s4.66-5.49,7.57-6.18S248.21,173.43,249.11,170.53Z" style="fill:#263238"></path><path d="M266.31,170.53a14.57,14.57,0,0,1,10.85-.5c5.72,2.13,7.66,8.57,6.08,8.58s-4.67-5.49-7.57-6.18S267.21,173.43,266.31,170.53Z" style="fill:#263238"></path><path d="M234.27,188.11a.5.5,0,0,1-.23-.94l4.44-2.4a.49.49,0,0,1,.67.2.5.5,0,0,1-.2.68l-4.44,2.4A.5.5,0,0,1,234.27,188.11Z" style="fill:#263238"></path><path d="M231.68,185.34a.5.5,0,0,1-.48-.37.51.51,0,0,1,.35-.62l2.78-.74a.5.5,0,0,1,.26,1l-2.78.74Z" style="fill:#263238"></path><path d="M283.12,187.74a.52.52,0,0,1-.21,0l-3.7-1.67a.5.5,0,0,1,.41-.91l3.7,1.67a.5.5,0,0,1-.2,1Z" style="fill:#263238"></path><path d="M283.12,182.56h0l-2.59-.19a.5.5,0,1,1,.07-1l2.59.18a.5.5,0,0,1,.46.54A.49.49,0,0,1,283.12,182.56Z" style="fill:#263238"></path><ellipse cx="259.53" cy="220.54" rx="4.72" ry="5.6" style="fill:#263238"></ellipse><path d="M116.18,232.42s.7-4.55-1.75-4.55S85.72,240.82,84,246.78s4.21,25.2,10.51,29.4,20,7.7,23.8,6.3,16.8-7.35,17.86-10.15-1.41-7-1.41-7Z" style="fill:#fff"></path><path d="M115.88,283.29c-5.67,0-16.34-3.13-21.68-6.69-6.4-4.27-12.59-23.56-10.7-30,1.81-6.17,28.34-19.26,30.93-19.26a2,2,0,0,1,1.54.69c1,1.2.82,3.56.73,4.26l18.47,32.76c.1.18,2.55,4.44,1.43,7.43-1.21,3.24-15.35,9.43-18.15,10.44A7.65,7.65,0,0,1,115.88,283.29Zm-1.45-54.92c-2.44,0-28.3,12.86-30,18.55-1.76,6,4.3,24.84,10.3,28.85,6.5,4.33,19.87,7.51,23.36,6.24,4.63-1.68,16.65-7.44,17.56-9.85s-1.34-6.54-1.37-6.58l-18.55-32.91a.45.45,0,0,1-.06-.32c.11-.73.24-2.8-.48-3.63A1,1,0,0,0,114.43,228.37Z" style="fill:#263238"></path><path d="M228.44,138.77s-5.37,9.48-6.27,10.75-.26,39-.74,44.59a41.43,41.43,0,0,1-5.51,16c-2.1,3.17-85.41,60.45-85.41,60.45s-8,2.08-14.8-5.85-8.36-22.23-7.52-26a16.41,16.41,0,0,1,3-6.31s87.67-33.09,88.59-33.42,3.61-5.39,3.54-7.89-3.68-34.5-2.78-35.77,11.76-15.57,11.76-15.57,15.37-8.18,16.29-8.83,8-3.32,8.08-.83-1.77,3.79-3.31,4.45a22.72,22.72,0,0,0-3.38,2Z" style="fill:#d9d9d9"></path><path d="M128.1,271.33a16.53,16.53,0,0,1-12.77-6.26c-6.66-7.83-8.57-22.2-7.62-26.42a16.87,16.87,0,0,1,3.05-6.52A.51.51,0,0,1,111,232c3.58-1.35,87.68-33.09,88.6-33.42.68-.32,3.27-5,3.21-7.4,0-.73-.35-4.13-.78-8.44-2-20.38-2.48-26.83-1.91-27.64.9-1.26,11.33-15,11.77-15.58a.54.54,0,0,1,.16-.14c4.27-2.27,15.51-8.28,16.24-8.8s6.14-2.67,8.07-1.7a1.41,1.41,0,0,1,.8,1.27c.06,2.18-1.19,3.88-3.61,4.92a22.59,22.59,0,0,0-3.22,1.85L228.86,139c-.33.59-5.39,9.52-6.28,10.78-.43,1.05-.44,14.46-.44,25.23,0,8.6,0,16.72-.21,19.11a42,42,0,0,1-5.59,16.27c-2.13,3.22-82.14,58.25-85.55,60.59a.48.48,0,0,1-.16.08A12,12,0,0,1,128.1,271.33Zm2.41-.73h0Zm-19-37.73a16,16,0,0,0-2.78,6c-.76,3.43.6,17.54,7.41,25.55,6.17,7.25,13.32,5.92,14.21,5.72,23.21-16,83.53-57.74,85.21-60.27a41,41,0,0,0,5.43-15.8c.2-2.35.2-10.45.2-19,0-18.41.1-25.07.62-25.81.88-1.23,6.19-10.61,6.24-10.71l0,0,1.5-2.22a.37.37,0,0,1,.12-.13,23.25,23.25,0,0,1,3.47-2c2-.88,3.06-2.21,3-4a.38.38,0,0,0-.25-.4c-1.38-.7-6.3,1.1-7,1.62-.9.64-14.82,8.05-16.25,8.81-.91,1.21-10.83,14.28-11.68,15.47-.47,1.28,1.19,18,2.08,27,.45,4.5.77,7.75.79,8.51.07,2.5-2.61,7.91-3.87,8.37C199,199.82,115.3,231.42,111.46,232.87Z" style="fill:#263238"></path><path d="M210.08,161.78H210a.51.51,0,0,1-.4-.59c.44-2.33,2.65-14,3.13-14.87s11.63-12.45,13.85-14.77a.5.5,0,0,1,.71,0,.49.49,0,0,1,0,.7c-5.28,5.49-13.28,13.9-13.71,14.57s-2,9.3-3,14.57A.49.49,0,0,1,210.08,161.78Z" style="fill:#263238"></path><path d="M204.26,159.3a.5.5,0,0,1-.5-.44,9.86,9.86,0,0,1,.92-5.94c.93-1.47,7.07-13.23,7.14-13.35a.5.5,0,0,1,.67-.21.49.49,0,0,1,.21.67c-.25.49-6.23,11.92-7.18,13.42a9.06,9.06,0,0,0-.77,5.29.5.5,0,0,1-.43.56Z" style="fill:#263238"></path><path d="M397.72,232.42s-.7-4.55,1.75-4.55,28.71,12.95,30.46,18.91-4.2,25.2-10.51,29.4-19.95,7.7-23.8,6.3-16.8-7.35-17.85-10.15,1.4-7,1.4-7Z" style="fill:#fff"></path><path d="M398,283.29a7.65,7.65,0,0,1-2.57-.34c-2.8-1-16.94-7.2-18.15-10.44-1.12-3,1.33-7.25,1.43-7.43l18.47-32.76c-.09-.7-.29-3.06.73-4.26a2,2,0,0,1,1.54-.69c2.59,0,29.12,13.09,30.94,19.26,1.88,6.41-4.31,25.7-10.71,30C414.36,280.16,403.69,283.29,398,283.29Zm1.45-54.92a1,1,0,0,0-.78.35c-.72.83-.59,2.9-.48,3.63a.51.51,0,0,1,0,.32L379.6,265.58s-2.32,4-1.37,6.58,12.93,8.17,17.56,9.85c3.49,1.27,16.86-1.91,23.36-6.24,6-4,12.06-22.84,10.3-28.85C427.77,241.23,401.91,228.37,399.47,228.37Z" style="fill:#263238"></path><path d="M286.26,138s5.31,9.52,6.2,10.79,0,39,.45,44.59a41.37,41.37,0,0,0,5.41,16.07c2.08,3.19,85,61,85,61s8,2.13,14.83-5.76,8.5-22.17,7.69-25.94a16.53,16.53,0,0,0-2.92-6.33s-87.46-33.64-88.38-34-3.57-5.42-3.49-7.91,3.9-34.47,3-35.75-11.66-15.64-11.66-15.64-15.32-8.28-16.23-8.94-8-3.37-8.08-.88,1.75,3.8,3.29,4.47a22.87,22.87,0,0,1,3.36,2Z" style="fill:#d9d9d9"></path><path d="M385.85,271.2a12.27,12.27,0,0,1-2.63-.26.48.48,0,0,1-.16-.08C379.67,268.5,300,213,297.9,209.73a42.2,42.2,0,0,1-5.49-16.31c-.19-2.39-.14-10.51-.08-19.11.06-10.78.14-24.18-.3-25.27-.87-1.23-5.87-10.19-6.2-10.78l-1.42-2.14a23.27,23.27,0,0,0-3.2-1.87c-2.42-1.06-3.66-2.77-3.59-4.94a1.42,1.42,0,0,1,.81-1.27c1.94-.95,7.27,1.19,8.06,1.76s11.93,6.6,16.18,8.9a.43.43,0,0,1,.16.14c.44.58,10.78,14.39,11.67,15.65.56.81.08,7.26-2.08,27.62-.46,4.31-.82,7.72-.84,8.44-.08,2.41,2.49,7.09,3.17,7.42l88.38,34a.51.51,0,0,1,.21.15,16.81,16.81,0,0,1,3,6.54c.92,4.23-1.08,18.57-7.79,26.37A16.56,16.56,0,0,1,385.85,271.2ZM383.56,270c.89.21,8,1.59,14.24-5.62,6.87-8,8.32-22.08,7.58-25.51a16.21,16.21,0,0,0-2.74-6c-3.83-1.47-87.35-33.6-88.24-33.93-1.25-.46-3.9-5.89-3.82-8.39,0-.76.37-4,.85-8.51.95-9,2.71-25.67,2.22-27-.81-1.16-10.65-14.29-11.55-15.5-1.42-.76-15.29-8.27-16.2-8.91-.74-.53-5.64-2.35-7-1.67a.4.4,0,0,0-.26.4c-.06,1.76.95,3.1,3,4a24.48,24.48,0,0,1,3.45,2,.8.8,0,0,1,.13.13l1.48,2.23,0,0c.05.1,5.3,9.52,6.17,10.76.52.73.57,7.4.46,25.8-.06,8.58-.11,16.68.08,19a40.75,40.75,0,0,0,5.33,15.84C300.4,211.72,360.45,253.88,383.56,270Z" style="fill:#263238"></path><path d="M304.47,161.13a.51.51,0,0,1-.49-.41c-1-5.28-2.59-13.9-2.93-14.59s-8.36-9.13-13.61-14.65a.5.5,0,1,1,.73-.69c2.21,2.33,13.28,14,13.76,14.86s2.61,12.56,3,14.89a.5.5,0,0,1-.41.58Z" style="fill:#263238"></path><path d="M310.31,158.68h-.06a.5.5,0,0,1-.43-.56,9,9,0,0,0-.74-5.29c-.94-1.51-6.84-13-7.09-13.46a.5.5,0,1,1,.89-.46c.06.12,6.13,11.91,7.05,13.39a10,10,0,0,1,.88,5.95A.5.5,0,0,1,310.31,158.68Z" style="fill:#263238"></path><path d="M182.81,133.69a.38.38,0,0,1-.18,0l-19.34-7.16a.5.5,0,0,1-.29-.64.5.5,0,0,1,.64-.3L183,132.73a.5.5,0,0,1,.3.64A.51.51,0,0,1,182.81,133.69Z" style="fill:#263238"></path><path d="M167.05,165.21a.49.49,0,0,1-.48-.38.5.5,0,0,1,.36-.61l14.32-3.58a.5.5,0,0,1,.61.37.5.5,0,0,1-.36.6l-14.33,3.58Z" style="fill:#263238"></path><path d="M328.92,133.69a.5.5,0,0,1-.18-1l19.34-7.17a.5.5,0,0,1,.64.3.49.49,0,0,1-.29.64l-19.34,7.16A.36.36,0,0,1,328.92,133.69Z" style="fill:#263238"></path><path d="M344.67,165.21l-.12,0-14.32-3.58a.5.5,0,1,1,.24-1l14.32,3.58a.51.51,0,0,1,.37.61A.5.5,0,0,1,344.67,165.21Z" style="fill:#263238"></path><path d="M213.27,118.17a.5.5,0,0,1-.43-.25l-7.15-12.15a.5.5,0,0,1,.17-.68.51.51,0,0,1,.69.18l7.15,12.15a.49.49,0,0,1-.18.68A.47.47,0,0,1,213.27,118.17Z" style="fill:#263238"></path><path d="M304.05,118.17a.48.48,0,0,1-.26-.07.5.5,0,0,1-.17-.68l7.14-12.15a.51.51,0,0,1,.69-.18.49.49,0,0,1,.18.68l-7.15,12.15A.5.5,0,0,1,304.05,118.17Z" style="fill:#263238"></path></g></svg>
